<?xml version="1.0" encoding="iso-8859-1"?>
<!-- Generator: Adobe Illustrator 19.0.0, SVG Export Plug-In . SVG Version: 6.00 Build 0)  -->
<svg version="1.1" id="Capa_1" xmlns="http://www.w3.org/2000/svg" xmlns:xlink="http://www.w3.org/1999/xlink" x="0px" y="0px"
	 viewBox="0 0 480 480" style="enable-background:new 0 0 480 480;" xml:space="preserve">
<g>
	<g>
		<rect x="224" y="232" width="32" height="16"/>
	</g>
</g>
<g>
	<g>
		<rect x="224" y="200" width="32" height="16"/>
	</g>
</g>
<g>
	<g>
		<path d="M416,0h-48c-4.8,0-8,3.2-8,8v10.4L324.8,32c-3.2,1.6-4.8,4.8-4.8,8v32h-40.8c-21.6-21.6-56.8-21.6-78.4,0H160V40
			c0-3.2-1.6-6.4-4.8-7.2L120,18.4V8c0-4.8-3.2-8-8-8H64c-4.8,0-8,3.2-8,8v32c0,4.8,3.2,8,8,8h48c4.8,0,8-3.2,8-8v-4l24,9.6V72h-8
			c-4.8,0-8,3.2-8,8v8H80v16h48v8c0,4,2.4,7.2,6.4,8l52.8,10.4c3.2,8,7.2,15.2,13.6,21.6h-17.6c-35.2,0-63.2,28.8-63.2,63.2v168
			c0,17.6,14.4,32.8,32.8,32.8H192v16c0,26.4,21.6,48,48,48c26.4,0,48-21.6,48-48v-16h39.2c17.6,0,32.8-14.4,32.8-32.8v-168
			c0-35.2-28.8-63.2-63.2-63.2h-17.6c6.4-6.4,11.2-13.6,13.6-21.6l52.8-10.4c4-0.8,6.4-4,6.4-8v-8h48V88h-48v-8c0-4.8-3.2-8-8-8h-8
			V45.6l24-9.6v4c0,4.8,3.2,8,8,8h48c4.8,0,8-3.2,8-8V8C424,3.2,420.8,0,416,0z M104,32H72V16h32V32z M184,112c0,0.8,0,0.8,0,1.6
			l-40-8V88h45.6C186.4,95.2,184,104,184,112z M272,432c0,17.6-14.4,32-32,32c-17.6,0-32-14.4-32-32v-56h64V432z M184,360v-24
			c0-31.2,24.8-56,56-56s56,24.8,56,56v24H184z M296.8,168c26.4,0,47.2,21.6,47.2,47.2v168c0,8.8-7.2,16.8-16.8,16.8H288v-24h16
			c4.8,0,8-3.2,8-8v-32c0-40-32-72-72-72s-72,32-72,72v32c0,4.8,3.2,8,8,8h16v24h-39.2c-8.8,0-16.8-7.2-16.8-16.8v-168
			c0-26.4,21.6-47.2,47.2-47.2H296.8z M240,152c-22.4,0-40-17.6-40-40c0-22.4,17.6-40,40-40c22.4,0,40,17.6,40,40
			C280,134.4,262.4,152,240,152z M336,105.6l-40,8c0-0.8,0-0.8,0-1.6c0-8-1.6-16.8-5.6-24H336V105.6z M408,32h-32V16h32V32z"/>
	</g>
</g>
<g>
</g>
<g>
</g>
<g>
</g>
<g>
</g>
<g>
</g>
<g>
</g>
<g>
</g>
<g>
</g>
<g>
</g>
<g>
</g>
<g>
</g>
<g>
</g>
<g>
</g>
<g>
</g>
<g>
</g>
</svg>
